<svg xmlns="http://www.w3.org/2000/svg" viewBox="0 0 118 94">
    <g fill="#000000">
        <path d="M 24.508065 0 C 17.77561 0.00061147667 12.793788 5.8933488 13.016777 12.284005 C 13.230775 18.423993 12.952749 26.376057 10.950753 32.861043 C 8.9427566 39.365031 5.546989 43.484851 0 44.013851 L 0 49.986096 C 5.546989 50.515096 8.9427566 54.634916 10.950753 61.138904 C 12.952749 67.62389 13.230775 75.575956 13.016777 81.715942 C 12.793777 88.10593 17.776146 93.999947 24.510132 93.999947 L 93.500236 93.999947 C 100.23322 93.999947 105.21401 88.10693 104.99101 81.715942 C 104.77701 75.575956 105.05501 67.62389 107.05703 61.138904 C 109.06603 54.634916 112.45305 50.515096 118.00003 49.986096 L 118.00003 44.013851 C 112.45305 43.484851 109.06603 39.365031 107.05703 32.861043 C 105.05503 26.377057 104.77701 18.423993 104.99101 12.284005 C 105.21401 5.8940172 100.23322 2.5066344e-15 93.500236 0 L 24.509098 0 L 24.508065 0 z M 28.99978 22.000208 L 35.615914 22.000208 L 45.816842 63.571313 L 55.854989 22.000208 L 62.40601 22.000208 L 72.541309 63.97439 L 82.677124 22.000208 L 89.000252 22.000208 L 76.387069 72.000256 L 69.119295 72.000256 L 58.918368 30.495813 L 48.94585 72.000256 L 41.840857 72.000256 L 28.99978 22.000208 z "/>
    </g>
</svg>